<svg xmlns="http://www.w3.org/2000/svg" viewBox="2.50039 24.485 99.15 67.28">
	<path d="M74.505,56.925c-0.552-2.489,0-5.251,0-5.251c-7.674,2.885-10.508,15.205-10.508,15.205l-8.572,16.037   c-3.595-20.74-13.698-29.008-17.883-34.492c-3.224-4.229-8.996-11.469-8.111-8.918c0.86,2.478,0,5.529,0,5.529   C28.047,42.273,18.096,38.4,18.096,38.4C4.825,33.422,5.187,24.485,5.187,24.485c-4.465,9.18-2.881,19.396,1.218,29.263   c5.044,12.142,29.968,23.317,36.297,26.957c7.369,4.236,10.465,11.059,10.465,11.059h1.707l1.184-1.549   c3.595-5.533,11.202-10.879,16.047-13.338c9.628-4.893,18.805-15.485,18.805-15.485c3.79-3.958,10.741-9.114,10.741-9.114   C87.675,47.104,74.505,56.925,74.505,56.925z M27.634,60.165c-8.578-4.228-13.827-14.088-13.827-14.088s4.688,6.732,15.016,12.317   c2.425,1.312,4.755,3.068,6.933,5.051c0.1-1.944-0.238-3.937-0.837-5.334c-2.178-5.064-3.105-8.117-3.105-8.117   s2.021,3.553,4.304,8.117c1.141,2.287,1.412,4.793,1.412,7.022l-0.034-0.017c8.383,8.361,14.179,19.425,14.179,19.425   S39.701,66.115,27.634,60.165z M73.592,70.566C66.099,73.487,58.03,83.846,58.03,83.846s4.018-6.288,9.433-10.838l-0.019,0.009   c0.114-1.326,0.404-2.806,1.203-4.108c1.593-2.6,2.976-4.611,2.976-4.611s-0.708,1.769-2.263,4.674   c-0.428,0.799-0.732,1.969-0.771,3.133c1.397-1.069,2.872-1.996,4.384-2.652c6.434-2.796,9.571-6.564,9.571-6.564   S78.912,68.49,73.592,70.566z" fill="#000000"/>
</svg>