<svg xmlns="http://www.w3.org/2000/svg" viewBox="8.026 13.236 94.47 35.19">
	<path d="M 92.544 39.92 c 0 3.119 -0.937 6.005 -2.482 8.504 h 10.884 c 0.96 -2.67 1.555 -5.509 1.555 -8.504 c 0 -14.716 -12.22 -26.684 -27.239 -26.684 c -8.168 0 -15.424 3.613 -20.421 9.215 c -5.273 -5.602 -12.938 -9.215 -21.563 -9.215 c -10.964 0 -20.407 5.794 -25.252 14.193 l 8.501 5.049 c 3.086 -5.486 9.391 -9.291 16.751 -9.291 c 6.975 0 13.317 2.753 17.578 7.404 c 1.093 1.193 4.407 5.172 4.407 5.172 s 3.533 -3.806 4.569 -5.172 c 3.485 -4.613 9.081 -7.404 15.429 -7.404 C 84.804 23.188 92.544 30.677 92.544 39.92 z" fill="#000000"/>
</svg>